<svg width="104" height="25" viewBox="0 0 104 25" fill="none" xmlns="http://www.w3.org/2000/svg">
<path d="M4.688 5.28V10.88H12.208V14.432H4.688V20.352H13.168V24H0.208V1.632H13.168V5.28H4.688ZM20.7193 0.32V24H16.2393V0.32H20.7193ZM40.6255 14.752C40.6255 15.392 40.5828 15.968 40.4975 16.48H27.5375C27.6442 17.76 28.0922 18.7627 28.8815 19.488C29.6708 20.2133 30.6415 20.576 31.7935 20.576C33.4575 20.576 34.6415 19.8613 35.3455 18.432H40.1775C39.6655 20.1387 38.6842 21.5467 37.2335 22.656C35.7828 23.744 34.0015 24.288 31.8895 24.288C30.1828 24.288 28.6468 23.9147 27.2815 23.168C25.9375 22.4 24.8815 21.3227 24.1135 19.936C23.3668 18.5493 22.9935 16.9493 22.9935 15.136C22.9935 13.3013 23.3668 11.6907 24.1135 10.304C24.8602 8.91733 25.9055 7.85067 27.2495 7.104C28.5935 6.35733 30.1402 5.984 31.8895 5.984C33.5748 5.984 35.0788 6.34667 36.4015 7.072C37.7455 7.79733 38.7802 8.832 39.5055 10.176C40.2522 11.4987 40.6255 13.024 40.6255 14.752ZM35.9855 13.472C35.9642 12.32 35.5482 11.4027 34.7375 10.72C33.9268 10.016 32.9348 9.664 31.7615 9.664C30.6522 9.664 29.7135 10.0053 28.9455 10.688C28.1988 11.3493 27.7402 12.2773 27.5695 13.472H35.9855ZM41.7435 15.072C41.7435 13.28 42.0955 11.6907 42.7995 10.304C43.5248 8.91733 44.4955 7.85067 45.7115 7.104C46.9488 6.35733 48.3248 5.984 49.8395 5.984C51.1622 5.984 52.3142 6.25067 53.2955 6.784C54.2982 7.31733 55.0982 7.98933 55.6955 8.8V6.272H60.2075V24H55.6955V21.408C55.1195 22.24 54.3195 22.9333 53.2955 23.488C52.2928 24.0213 51.1302 24.288 49.8075 24.288C48.3142 24.288 46.9488 23.904 45.7115 23.136C44.4955 22.368 43.5248 21.2907 42.7995 19.904C42.0955 18.496 41.7435 16.8853 41.7435 15.072ZM55.6955 15.136C55.6955 14.048 55.4822 13.12 55.0555 12.352C54.6288 11.5627 54.0528 10.9653 53.3275 10.56C52.6022 10.1333 51.8235 9.92 50.9915 9.92C50.1595 9.92 49.3915 10.1227 48.6875 10.528C47.9835 10.9333 47.4075 11.5307 46.9595 12.32C46.5328 13.088 46.3195 14.0053 46.3195 15.072C46.3195 16.1387 46.5328 17.0773 46.9595 17.888C47.4075 18.6773 47.9835 19.2853 48.6875 19.712C49.4128 20.1387 50.1808 20.352 50.9915 20.352C51.8235 20.352 52.6022 20.1493 53.3275 19.744C54.0528 19.3173 54.6288 18.72 55.0555 17.952C55.4822 17.1627 55.6955 16.224 55.6955 15.136ZM68.063 9.024C68.639 8.08533 69.3857 7.34933 70.303 6.816C71.2417 6.28267 72.3083 6.016 73.503 6.016V10.72H72.319C70.911 10.72 69.8443 11.0507 69.119 11.712C68.415 12.3733 68.063 13.5253 68.063 15.168V24H63.583V6.272H68.063V9.024ZM85.3445 6.016C87.4565 6.016 89.1632 6.688 90.4645 8.032C91.7658 9.35467 92.4165 11.2107 92.4165 13.6V24H87.9365V14.208C87.9365 12.8 87.5845 11.7227 86.8805 10.976C86.1765 10.208 85.2165 9.824 84.0005 9.824C82.7632 9.824 81.7818 10.208 81.0565 10.976C80.3525 11.7227 80.0005 12.8 80.0005 14.208V24H75.5205V6.272H80.0005V8.48C80.5978 7.712 81.3552 7.11467 82.2725 6.688C83.2112 6.24 84.2352 6.016 85.3445 6.016Z" fill="#11142D"/>
<path d="M99.7568 24.336C98.5408 24.336 97.5328 23.968 96.7328 23.232C95.9648 22.464 95.5808 21.52 95.5808 20.4C95.5808 19.28 95.9648 18.352 96.7328 17.616C97.5328 16.848 98.5408 16.464 99.7568 16.464C100.941 16.464 101.917 16.848 102.685 17.616C103.453 18.352 103.837 19.28 103.837 20.4C103.837 21.52 103.453 22.464 102.685 23.232C101.917 23.968 100.941 24.336 99.7568 24.336Z" fill="#FF7C5D"/>
</svg>
